<svg xmlns="http://www.w3.org/2000/svg" viewBox="0 0 500 175"><title>logo-dark</title><rect width="175" height="175" fill="#663"/><path d="M26.35,16.81l23,.28c1.8,0,6.87-1,8,0,.88,1,.44,2.63-.14,3.52-9.48.15-7.47,7.83-7.47,16.91,0,3.07-.63,8,.56,10.14,3.58,1,9.1.42,13.39.42,5.24,0,11.59.63,16.33-.28,1.25-1.07.85-4.06.85-6.34,0-5,.92-15.76-1.13-18.73-2.28-3.31-9,.6-7.46-5.78l31.83.14a4.45,4.45,0,0,1-.28,3.52c-2.3.08-5.48.55-6.48,2-2,2.9-1.27,10-1.27,14.64v30c0,4.49-.69,10.65.85,14,1.23,2.65,4.94,1.86,7.6,3.1a4.45,4.45,0,0,1-.28,3.52c-10.13,0-21.15,0-31.27,0l-.14-.42A3,3,0,0,1,73.11,84c10.44-.16,7.75-9.34,7.75-19.3,0-2.56.87-9.42-.71-10.56-2.33-1.31-18.87-.43-23.09-.43-2.31,0-6.21-.55-7.05,1s-.28,4.77-.28,6.76c0,5.31-1,17.29,1.13,20.42,1.5,2.19,5.44,1.24,8,2.4a4.45,4.45,0,0,1-.29,3.52H26.35l-.14-.42A3.19,3.19,0,0,1,26.49,84c2.69,0,6-.49,7-2.26,1.81-3.1,1-10,1-14.51V36.81c0-4.32.73-10.53-.85-13.66-1.33-2.66-5.07-1.5-7.6-3A5,5,0,0,1,26.35,16.81Z" fill="#fff" fill-rule="evenodd"/><path d="M125.79,36.39c7.44-.1,12.31,1.84,18.17,2.53.5,3,3.27,12.7,1.41,15.92a4.36,4.36,0,0,1-3.8-.28c-1-5.7-5.91-11.41-11.13-13-7.12-2.11-15.17,3.64-13.66,11,1.64,8,9.6,10.35,15.77,13.94,7.08,4.12,13.19,8.24,15.35,17.33a22.9,22.9,0,0,1-.7,12.25c-4.25,10.78-18.52,16.67-34.09,13.24-3.39-.75-7.17-1.27-9.57-3.1-3.63-2.76-2.13-12-3.53-17.32l1-.85a3.59,3.59,0,0,1,3,.14c3,7,6.57,13.42,13.66,16.2,8.12,3.19,17.85-2,16.34-11.13-2.48-15-20.72-15.49-27.61-26.34-5.36-8.45-2.79-20.1,3.81-25.21a27.34,27.34,0,0,1,10.28-4.65Z" fill="#fff" fill-rule="evenodd"/><path d="M85.93,84.42c7.44-.1,12.31,1.84,18.17,2.53.5,3,3.27,12.7,1.41,15.92a4.36,4.36,0,0,1-3.8-.28c-1-5.7-5.91-11.41-11.13-13-7.12-2.11-15.17,3.64-13.66,11,1.64,8,9.6,10.35,15.77,13.94,7.08,4.12,13.19,8.24,15.35,17.33a22.9,22.9,0,0,1-.7,12.25c-4.25,10.78-18.52,16.67-34.09,13.24-3.39-.75-7.17-1.27-9.57-3.1-3.63-2.76-2.13-12-3.53-17.32l1-.85a3.59,3.59,0,0,1,3,.14c3,7,6.57,13.42,13.66,16.2,8.12,3.19,17.85-2,16.34-11.13C91.62,126.37,73.37,125.83,66.49,115c-5.36-8.45-2.79-20.1,3.81-25.21a27.27,27.27,0,0,1,10.28-4.65Z" fill="#fff" fill-rule="evenodd"/><path d="M329.46,73.55V38.27a6.91,6.91,0,0,0-.76-13.79H298a7,7,0,0,0-7,7,6.85,6.85,0,0,0,6.19,6.84V73.55a45.27,45.27,0,0,0-18,12.92,2.29,2.29,0,0,0,.33,3.26,2.63,2.63,0,0,0,1.52.54,2.29,2.29,0,0,0,1.74-.87,39.4,39.4,0,0,1,17.58-12.05,2.22,2.22,0,0,0,1.52-2.17V38.27h13A2.29,2.29,0,0,0,317.19,36a2.36,2.36,0,0,0-2.28-2.28H298a2.29,2.29,0,0,1-2.28-2.28A2.36,2.36,0,0,1,298,29.15H328.7A2.29,2.29,0,0,1,331,31.43a2.37,2.37,0,0,1-2.28,2.28h-4.56A2.29,2.29,0,0,0,321.86,36a2.37,2.37,0,0,0,2.28,2.28h.76V75.18a2.37,2.37,0,0,0,1.52,2.17,40,40,0,0,1-13,77.73,39.09,39.09,0,0,1-15-2.93,2.34,2.34,0,0,0-1.74,4.34,44,44,0,0,0,16.72,3.26,44.62,44.62,0,0,0,16.07-86.2Z" fill="#19190d"/><circle cx="330.44" cy="123.27" r="2.28" fill="#663"/><circle cx="321.21" cy="132.5" r="2.28" fill="#663"/><path d="M300.26,143a2.29,2.29,0,0,0-2,4.13,35.34,35.34,0,0,0,50.38-32,34.9,34.9,0,0,0-4.78-17.7,2.18,2.18,0,0,0-2.28-1.08l-.87.11a.37.37,0,0,0-.32.11,17.56,17.56,0,0,0-6.84,3.69,8,8,0,0,1-6,2.28c-2.71,0-3.9-1.09-5.64-2.5a12,12,0,0,0-8.69-3.58c-4.45,0-6.73,2.06-8.68,3.58-1.74,1.41-2.93,2.5-5.65,2.5a7.59,7.59,0,0,1-6-2.28,17.56,17.56,0,0,0-6.84-3.69.38.38,0,0,1-.32-.11l-.87-.11a2.27,2.27,0,0,0-2.28,1.08.11.11,0,0,1-.11.11,2.32,2.32,0,0,0,.87,3.15A2.4,2.4,0,0,0,285,101h0a13,13,0,0,1,5.1,2.82,12,12,0,0,0,8.9,3.26c4.45,0,6.73-2.07,8.69-3.59,1.74-1.41,2.93-2.49,5.64-2.49s3.91,1.08,5.65,2.49a12,12,0,0,0,8.68,3.59,12.37,12.37,0,0,0,8.91-3.26,14.07,14.07,0,0,1,4.23-2.61,30.82,30.82,0,0,1-27.47,44.62,31.47,31.47,0,0,1-13-2.82Z" fill="#663"/><path d="M269,74.85V29a6.91,6.91,0,0,0-.76-13.79H237.5a7,7,0,0,0-6.94,7A6.85,6.85,0,0,0,236.74,29V66A2.3,2.3,0,0,0,239,68.23,2.37,2.37,0,0,0,241.3,66V29h13a2.29,2.29,0,0,0,2.28-2.28,2.36,2.36,0,0,0-2.28-2.28H237.5a2.3,2.3,0,0,1-2.28-2.28,2.37,2.37,0,0,1,2.28-2.28h30.73a2.29,2.29,0,0,1,2.28,2.28,2.37,2.37,0,0,1-2.28,2.28h-4.56a2.29,2.29,0,0,0-2.28,2.28A2.37,2.37,0,0,0,263.67,29h.76V75.18a1.85,1.85,0,0,0,.11.76l22.36,64.81c1.31,3.91,1.09,7.49-.87,10.21s-5.21,4.12-9.33,4.12H229c-4.13,0-7.49-1.52-9.34-4.12s-2.17-6.3-.87-10.21L241.2,75.94a2.3,2.3,0,0,0-4.35-1.52l-22.36,64.81c-1.85,5.32-1.3,10.42,1.41,14.44s7.49,6.08,13.14,6.08H276.7c5.64,0,10.31-2.17,13.13-6.08s3.37-9,1.42-14.44Z" fill="#663"/><path d="M233.27,122.4a2.36,2.36,0,0,0-2.06-.43,2.22,2.22,0,0,0-1.52,1.41l-6.52,18.89c-.86,2.5-.76,4.56.22,6.08s3,2.17,5.65,2.17H276.7c2.6,0,4.56-.76,5.64-2.17s1.09-3.58.22-6.08l-6.51-18.67a2.2,2.2,0,0,0-1.52-1.41,2,2,0,0,0-2.07.43,7.52,7.52,0,0,1-5.32,1.74c-2.71,0-3.91-1.09-5.64-2.5a12,12,0,0,0-8.69-3.58c-4.45,0-6.73,2.06-8.68,3.58-1.74,1.41-2.93,2.5-5.65,2.5a8.62,8.62,0,0,1-5.21-2Zm14,2.72c1.73-1.41,2.93-2.5,5.64-2.5s3.91,1.09,5.65,2.5a12,12,0,0,0,8.68,3.58,12.86,12.86,0,0,0,5.54-1.08l5.54,15.95a5.35,5.35,0,0,1,.32,1.85,4.49,4.49,0,0,1-1.84.33H229a4.51,4.51,0,0,1-1.85-.33,5.56,5.56,0,0,1,.33-1.85l5.53-15.95a12.2,12.2,0,0,0,5.54,1.08C243,128.81,245.32,126.75,247.28,125.12Z" fill="#19190d"/><path d="M500,157.28a71.77,71.77,0,0,0-15.64-45.72c-9-11.62-20.85-20.86-32.37-29.76C430.16,65,409.52,49,409.52,17.28A2.37,2.37,0,0,0,407.24,15H398a2.3,2.3,0,0,0-2.28,2.28,72,72,0,0,0,15.64,45.84c7.17,9.23,16.18,16.94,25.31,24.22-8.69,6.84-18,14.77-25.42,24.33a72.13,72.13,0,0,0-15.64,45.83,2.22,2.22,0,0,0,2.28,2.28h9.23a2.29,2.29,0,0,0,2.29-2.28c0-2.39.1-4.67.32-6.95h16.4a2.29,2.29,0,0,0,2.28-2.28,2.22,2.22,0,0,0-2.28-2.28H410.5a54.42,54.42,0,0,1,4.35-13.69h57a2.28,2.28,0,0,0,0-4.56H417.24a73,73,0,0,1,10.42-13.68h28.13a2.29,2.29,0,0,0,0-4.57H432.33c4.67-4.45,10-8.68,15.54-13.14,20.2,15.86,38.34,31.72,38.34,61.37a2.22,2.22,0,0,0,2.28,2.28h9.23a2.3,2.3,0,0,0,2.28-2.28v-.44Zm-74.94-47.46-.33.33a99.88,99.88,0,0,0-7.06,8.25,68.21,68.21,0,0,0-6.3,10.21.84.84,0,0,0-.22.43,64.19,64.19,0,0,0-5.64,18.69v.32a49.58,49.58,0,0,0-.55,7.06h-4.67a67.6,67.6,0,0,1,14.56-40.73c7.27-9.45,16.83-17.38,25.41-24.11l3.26,2.61c.11.11.33.21.44.32a233.7,233.7,0,0,0-18.9,16.62Zm65.71,45.4A63.23,63.23,0,0,0,477,117.1c-8.25-10.54-19-19-30.52-27.81C435.27,80.6,423.64,71.59,415,60.4a67.47,67.47,0,0,1-14.67-40.73h4.56a63.23,63.23,0,0,0,13.8,38.12c8.36,10.54,19.11,18.9,30.63,27.81,11.18,8.69,22.81,17.7,31.5,28.89a67.53,67.53,0,0,1,14.55,40.73Z" fill="#19190d"/><path d="M424.19,42.48a2.5,2.5,0,0,0,0,5h9.66a2.5,2.5,0,0,0,0-5Z" fill="#19190d"/><path d="M416.15,28.69H485a51.06,51.06,0,0,1-4.34,13.57h-39.1a2.23,2.23,0,0,0-2.29,2.28,2.29,2.29,0,0,0,2.29,2.28h36.71A76.18,76.18,0,0,1,467.74,60.4H439.18a2.22,2.22,0,0,0-2.28,2.28A2.28,2.28,0,0,0,439.18,65H463c-3,2.72-6.3,5.43-9.77,8.26a2.27,2.27,0,0,0-.33,3.26,2.38,2.38,0,0,0,3.26.32C466.44,68.55,477.3,59,483.93,45.85c.1-.22.21-.33.32-.55A59.47,59.47,0,0,0,489.9,27v-.33a49.51,49.51,0,0,0,.54-6.95h4.67c-.21,15-5.1,28.24-14.55,40.19C475.67,65.94,469.37,72,460.79,79a2.37,2.37,0,0,0-.33,3.26,2.32,2.32,0,0,0,1.85.87,2.63,2.63,0,0,0,1.52-.54c8.8-7.17,15.32-13.47,20.42-19.88C494.9,49.32,500,34.44,500,17.28A2.3,2.3,0,0,0,497.72,15h-9.34a2.22,2.22,0,0,0-2.28,2.28,67.87,67.87,0,0,1-.33,6.84H416.15a2.29,2.29,0,0,0,0,4.57Z" fill="#663"/><path d="M478.17,145.34H435.59a2.51,2.51,0,0,0,0,5h42.58a2.34,2.34,0,0,0,2.28-2.49A2.42,2.42,0,0,0,478.17,145.34Z" fill="#663"/></svg>