<svg xmlns="http://www.w3.org/2000/svg" viewBox="0 0 550 175"><title>logo-bright</title><rect x="171.47" width="175" height="175" fill="#b2b247"/><path d="M198.2,16.81l23,.28c1.8,0,6.87-1,8,0,.89,1,.44,2.63-.14,3.52-9.47.15-7.46,7.83-7.46,16.91,0,3.07-.63,8,.56,10.14,3.57,1,9.1.42,13.38.42,5.25,0,11.6.63,16.34-.28,1.25-1.07.84-4.06.84-6.34,0-5,.93-15.76-1.12-18.73-2.29-3.31-9,.6-7.47-5.78l31.83.14a4.37,4.37,0,0,1-.28,3.52c-2.29.08-5.47.55-6.48,2-2,2.9-1.26,10-1.26,14.64v30c0,4.49-.7,10.65.84,14,1.24,2.65,4.94,1.86,7.61,3.1a4.5,4.5,0,0,1-.28,3.52c-10.13,0-21.15,0-31.27,0l-.14-.42A3,3,0,0,1,245,84c10.44-.16,7.74-9.34,7.74-19.3,0-2.56.88-9.42-.7-10.56-2.33-1.31-18.87-.43-23.1-.43-2.3,0-6.21-.55-7,1s-.28,4.77-.28,6.76c0,5.31-1,17.29,1.12,20.42,1.51,2.19,5.45,1.24,8,2.4a4.45,4.45,0,0,1-.28,3.52H198.2l-.15-.42c-.74-1-.26-2.53.29-3.38,2.69,0,6-.49,7-2.26,1.81-3.1,1-10,1-14.51V36.81c0-4.32.74-10.53-.84-13.66-1.34-2.66-5.08-1.5-7.61-3A5.07,5.07,0,0,1,198.2,16.81Z" fill="#19190d" fill-rule="evenodd"/><path d="M297.64,36.39c7.44-.1,12.31,1.84,18.16,2.53.51,3,3.28,12.7,1.41,15.92a4.37,4.37,0,0,1-3.8-.28c-1-5.7-5.9-11.41-11.13-13-7.12-2.11-15.16,3.64-13.66,11,1.64,8,9.6,10.35,15.78,13.94,7.08,4.12,13.19,8.24,15.35,17.33A22.9,22.9,0,0,1,319,96.11c-4.24,10.78-18.52,16.67-34.08,13.24-3.4-.75-7.17-1.27-9.58-3.1-3.63-2.76-2.13-12-3.52-17.32l1-.85a3.56,3.56,0,0,1,2.95.14c3,7,6.58,13.42,13.67,16.2,8.12,3.19,17.84-2,16.33-11.13-2.47-15-20.72-15.49-27.6-26.34-5.37-8.45-2.79-20.1,3.8-25.21a27.42,27.42,0,0,1,10.28-4.65Z" fill="#19190d" fill-rule="evenodd"/><path d="M257.77,84.42c7.45-.1,12.32,1.84,18.17,2.53.51,3,3.28,12.7,1.41,15.92a4.37,4.37,0,0,1-3.8-.28c-.95-5.7-5.9-11.41-11.13-13-7.12-2.11-15.16,3.64-13.66,11,1.64,8,9.6,10.35,15.78,13.94,7.08,4.12,13.19,8.24,15.35,17.33a22.9,22.9,0,0,1-.71,12.25c-4.24,10.78-18.52,16.67-34.08,13.24-3.4-.75-7.17-1.27-9.58-3.1-3.63-2.76-2.13-12-3.52-17.32l1-.85a3.56,3.56,0,0,1,2.95.14c3,7,6.58,13.42,13.67,16.2,8.12,3.19,17.84-2,16.33-11.13-2.47-14.95-20.72-15.49-27.6-26.34-5.37-8.45-2.79-20.1,3.8-25.21a27.42,27.42,0,0,1,10.28-4.65Z" fill="#19190d" fill-rule="evenodd"/><path d="M521.56,73.55V38.27a6.91,6.91,0,0,0-.76-13.79H490.07a7,7,0,0,0-6.95,7,6.86,6.86,0,0,0,6.19,6.84V73.55a45.23,45.23,0,0,0-18,12.92,2.28,2.28,0,0,0,.33,3.26,2.6,2.6,0,0,0,1.52.54,2.26,2.26,0,0,0,1.73-.87,39.43,39.43,0,0,1,17.59-12.05A2.22,2.22,0,0,0,494,75.18V38.27h13A2.3,2.3,0,0,0,509.29,36,2.37,2.37,0,0,0,507,33.71H490.07a2.3,2.3,0,0,1-2.28-2.28,2.37,2.37,0,0,1,2.28-2.28H520.8a2.29,2.29,0,0,1,2.28,2.28,2.37,2.37,0,0,1-2.28,2.28h-4.56A2.28,2.28,0,0,0,514,36a2.37,2.37,0,0,0,2.28,2.28H517V75.18a2.37,2.37,0,0,0,1.52,2.17,40,40,0,0,1-13,77.73,39.05,39.05,0,0,1-15-2.93,2.34,2.34,0,0,0-1.74,4.34,43.91,43.91,0,0,0,16.72,3.26,44.62,44.62,0,0,0,16.07-86.2Z" fill="#f7f7ef"/><circle cx="522.53" cy="123.27" r="2.28" fill="#b2b247"/><circle cx="513.3" cy="132.5" r="2.28" fill="#b2b247"/><path d="M492.35,143a2.28,2.28,0,1,0-2,4.13,35.33,35.33,0,0,0,50.37-32A34.9,34.9,0,0,0,536,97.43a2.17,2.17,0,0,0-2.27-1.08l-.87.11a.4.4,0,0,0-.33.11,17.64,17.64,0,0,0-6.84,3.69,8,8,0,0,1-6,2.28c-2.71,0-3.91-1.09-5.65-2.5a12,12,0,0,0-8.68-3.58c-4.45,0-6.73,2.06-8.69,3.58-1.73,1.41-2.93,2.5-5.64,2.5a7.59,7.59,0,0,1-6-2.28,17.64,17.64,0,0,0-6.84-3.69.4.4,0,0,1-.33-.11l-.87-.11a2.28,2.28,0,0,0-2.28,1.08s0,.11-.1.11a2.32,2.32,0,0,0,.86,3.15A2.41,2.41,0,0,0,477,101h0a13.14,13.14,0,0,1,5.11,2.82,11.93,11.93,0,0,0,8.9,3.26c4.45,0,6.73-2.07,8.68-3.59,1.74-1.41,2.94-2.49,5.65-2.49s3.91,1.08,5.64,2.49a12,12,0,0,0,8.69,3.59,12.33,12.33,0,0,0,8.9-3.26,14.13,14.13,0,0,1,4.24-2.61,30.84,30.84,0,0,1-27.47,44.62,31.55,31.55,0,0,1-13-2.82Z" fill="#b2b247"/><path d="M461.08,74.85V29a6.91,6.91,0,0,0-.76-13.79H429.6a7,7,0,0,0-7,7A6.86,6.86,0,0,0,428.84,29V66a2.3,2.3,0,0,0,2.28,2.28A2.37,2.37,0,0,0,433.4,66V29h13a2.3,2.3,0,0,0,2.28-2.28,2.37,2.37,0,0,0-2.28-2.28H429.6a2.3,2.3,0,0,1-2.28-2.28,2.37,2.37,0,0,1,2.28-2.28h30.72a2.28,2.28,0,0,1,2.28,2.28,2.37,2.37,0,0,1-2.28,2.28h-4.56a2.29,2.29,0,0,0-2.28,2.28A2.37,2.37,0,0,0,455.76,29h.76V75.18a1.85,1.85,0,0,0,.11.76L479,140.75c1.3,3.91,1.08,7.49-.87,10.21s-5.21,4.12-9.34,4.12H421.13c-4.12,0-7.49-1.52-9.33-4.12s-2.18-6.3-.87-10.21l22.36-64.81A2.3,2.3,0,1,0,429,74.42l-22.37,64.81c-1.84,5.32-1.3,10.42,1.42,14.44s7.49,6.08,13.13,6.08h47.66c5.65,0,10.32-2.17,13.14-6.08s3.36-9,1.41-14.44Z" fill="#b2b247"/><path d="M425.37,122.4a2.39,2.39,0,0,0-2.07-.43,2.22,2.22,0,0,0-1.52,1.41l-6.51,18.89c-.87,2.5-.76,4.56.22,6.08s3,2.17,5.64,2.17h47.66c2.61,0,4.56-.76,5.65-2.17s1.08-3.58.22-6.08l-6.52-18.67a2.2,2.2,0,0,0-1.52-1.41,2,2,0,0,0-2.06.43,7.54,7.54,0,0,1-5.32,1.74c-2.72,0-3.91-1.09-5.65-2.5a12,12,0,0,0-8.68-3.58c-4.45,0-6.73,2.06-8.69,3.58-1.73,1.41-2.93,2.5-5.64,2.5a8.59,8.59,0,0,1-5.21-2Zm14,2.72c1.74-1.41,2.93-2.5,5.65-2.5s3.9,1.09,5.64,2.5a12,12,0,0,0,8.69,3.58,12.81,12.81,0,0,0,5.53-1.08l5.54,15.95a5.2,5.2,0,0,1,.33,1.85,4.51,4.51,0,0,1-1.85.33H421.13a4.41,4.41,0,0,1-1.84-.33,5.72,5.72,0,0,1,.32-1.85l5.54-15.95a12.17,12.17,0,0,0,5.54,1.08C435.14,128.81,437.42,126.75,439.37,125.12Z" fill="#f7f7ef"/><path d="M104.38,157.28a71.83,71.83,0,0,0-15.64-45.72c-9-11.62-20.86-20.86-32.37-29.76C34.54,65,13.9,49,13.9,17.28A2.37,2.37,0,0,0,11.62,15H2.39A2.3,2.3,0,0,0,.11,17.28c0,17.27,5.1,32.37,15.64,45.84,7.17,9.23,16.18,16.94,25.31,24.22-8.69,6.84-18,14.77-25.42,24.33A72.07,72.07,0,0,0,0,157.5a2.22,2.22,0,0,0,2.28,2.28h9.23a2.28,2.28,0,0,0,2.28-2.28c0-2.39.11-4.67.33-6.95h16.4a2.3,2.3,0,0,0,2.28-2.28A2.23,2.23,0,0,0,30.52,146H14.88a54.81,54.81,0,0,1,4.34-13.69h57a2.28,2.28,0,0,0,0-4.56H21.61A73.51,73.51,0,0,1,32,114.06H60.17a2.29,2.29,0,0,0,0-4.57H36.71c4.67-4.45,10-8.68,15.53-13.14,20.21,15.86,38.34,31.72,38.34,61.37A2.23,2.23,0,0,0,92.87,160h9.23a2.3,2.3,0,0,0,2.28-2.28v-.44ZM29.43,109.82l-.32.33a99.88,99.88,0,0,0-7.06,8.25,68.21,68.21,0,0,0-6.3,10.21.84.84,0,0,0-.22.43,64.51,64.51,0,0,0-5.65,18.69v.32a51.09,51.09,0,0,0-.54,7.06H4.67a67.53,67.53,0,0,1,14.55-40.73C26.5,104.93,36.06,97,44.64,90.27l3.26,2.61c.11.11.32.21.43.32a237.16,237.16,0,0,0-18.9,16.62Zm65.72,45.4a63.23,63.23,0,0,0-13.8-38.12c-8.25-10.54-19-19-30.52-27.81C39.64,80.6,28,71.59,19.33,60.4A67.4,67.4,0,0,1,4.67,19.67H9.23A63.23,63.23,0,0,0,23,57.79c8.36,10.54,19.11,18.9,30.63,27.81,11.18,8.69,22.8,17.7,31.49,28.89a67.6,67.6,0,0,1,14.56,40.73Z" fill="#f7f7ef"/><path d="M28.57,42.48a2.5,2.5,0,0,0,0,5h9.66a2.5,2.5,0,0,0,0-5Z" fill="#f7f7ef"/><path d="M20.53,28.69H89.39A50.71,50.71,0,0,1,85,42.26H45.94a2.23,2.23,0,0,0-2.28,2.28,2.29,2.29,0,0,0,2.28,2.28H82.66A76.18,76.18,0,0,1,72.12,60.4H43.55a2.23,2.23,0,0,0-2.28,2.28A2.29,2.29,0,0,0,43.55,65H67.34c-3,2.72-6.3,5.43-9.77,8.26a2.27,2.27,0,0,0-.33,3.26,2.38,2.38,0,0,0,3.26.32C70.82,68.55,81.68,59,88.3,45.85c.11-.22.22-.33.33-.55A59.74,59.74,0,0,0,94.28,27v-.33a49.51,49.51,0,0,0,.54-6.95h4.67c-.22,15-5.1,28.24-14.55,40.19C80.05,65.94,73.75,72,65.17,79a2.37,2.37,0,0,0-.33,3.26,2.32,2.32,0,0,0,1.85.87,2.63,2.63,0,0,0,1.52-.54C77,75.39,83.52,69.09,88.63,62.68a70.25,70.25,0,0,0,15.75-45.4A2.3,2.3,0,0,0,102.1,15H92.76a2.22,2.22,0,0,0-2.28,2.28,67.87,67.87,0,0,1-.33,6.84H20.53a2.29,2.29,0,0,0,0,4.57Z" fill="#b2b247"/><path d="M82.55,145.34H40a2.51,2.51,0,0,0,0,5H82.55a2.34,2.34,0,0,0,2.28-2.49A2.42,2.42,0,0,0,82.55,145.34Z" fill="#b2b247"/></svg>