<svg xmlns="http://www.w3.org/2000/svg" viewBox="0 0 400 175"><title>Horizontal Logo - HSS with Flasks - 2020-05</title><rect width="175" height="175" fill="#666633"/><path d="M26.73,16.81l23,.28c1.8,0,6.87-1,8,0,.89,1,.44,2.63-.14,3.52-9.47.15-7.46,7.83-7.46,16.91,0,3.07-.63,8,.56,10.14,3.57,1,9.1.42,13.38.42,5.25,0,11.6.63,16.34-.28,1.25-1.07.84-4.06.84-6.34,0-5,.93-15.76-1.12-18.73-2.29-3.31-9,.6-7.47-5.78l31.83.14a4.37,4.37,0,0,1-.28,3.52c-2.29.08-5.47.55-6.48,2-2,2.9-1.26,10-1.26,14.64v30c0,4.49-.7,10.65.84,14,1.24,2.65,4.94,1.86,7.61,3.1a4.5,4.5,0,0,1-.28,3.52c-10.13,0-21.15,0-31.27,0l-.14-.42A3,3,0,0,1,73.49,84c10.44-.16,7.74-9.34,7.74-19.3,0-2.56.88-9.42-.7-10.56-2.33-1.31-18.87-.43-23.1-.43-2.3,0-6.21-.55-7,1s-.28,4.77-.28,6.76c0,5.31-1,17.29,1.12,20.42,1.51,2.19,5.45,1.24,8,2.4A4.45,4.45,0,0,1,59,87.8H26.73l-.15-.42c-.74-1-.26-2.53.29-3.38,2.69,0,6-.49,7-2.26,1.81-3.1,1-10,1-14.51V36.81c0-4.32.74-10.53-.84-13.66-1.34-2.66-5.08-1.5-7.61-3A5.07,5.07,0,0,1,26.73,16.81Z" fill="#fff" fill-rule="evenodd"/><path d="M126.17,36.39c7.44-.1,12.31,1.84,18.17,2.53.5,3,3.27,12.7,1.4,15.92a4.37,4.37,0,0,1-3.8-.28c-.95-5.7-5.9-11.41-11.13-13-7.12-2.11-15.16,3.64-13.66,11,1.64,8,9.61,10.35,15.78,13.94,7.08,4.12,13.19,8.24,15.35,17.33a22.9,22.9,0,0,1-.71,12.25c-4.24,10.78-18.52,16.67-34.08,13.24-3.4-.75-7.17-1.27-9.58-3.1-3.63-2.76-2.13-12-3.52-17.32l1-.85a3.56,3.56,0,0,1,3,.14c3,7,6.58,13.42,13.67,16.2,8.12,3.19,17.84-2,16.33-11.13-2.47-15-20.72-15.49-27.6-26.34-5.37-8.45-2.79-20.1,3.8-25.21a27.42,27.42,0,0,1,10.28-4.65Z" fill="#fff" fill-rule="evenodd"/><path d="M86.3,84.42c7.45-.1,12.32,1.84,18.17,2.53.51,3,3.28,12.7,1.41,15.92a4.37,4.37,0,0,1-3.8-.28c-1-5.7-5.9-11.41-11.13-13-7.12-2.11-15.16,3.64-13.66,11,1.64,8,9.6,10.35,15.78,13.94,7.08,4.12,13.19,8.24,15.35,17.33a22.9,22.9,0,0,1-.71,12.25c-4.24,10.78-18.52,16.67-34.08,13.24-3.4-.75-7.17-1.27-9.58-3.1-3.63-2.76-2.13-12-3.52-17.32l1-.85a3.56,3.56,0,0,1,2.95.14c3,7,6.58,13.42,13.67,16.2,8.12,3.19,17.84-2,16.33-11.13C92,126.37,73.75,125.83,66.87,115c-5.37-8.45-2.79-20.1,3.8-25.21A27.42,27.42,0,0,1,81,85.12Z" fill="#fff" fill-rule="evenodd"/><path d="M331.68,73.55V38.27a6.91,6.91,0,0,0-.76-13.79H300.2a7,7,0,0,0-6.95,7,6.85,6.85,0,0,0,6.19,6.84V73.55a45.27,45.27,0,0,0-18,12.92,2.29,2.29,0,0,0,.33,3.26,2.63,2.63,0,0,0,1.52.54A2.29,2.29,0,0,0,285,89.4a39.35,39.35,0,0,1,17.58-12.05,2.22,2.22,0,0,0,1.52-2.17V38.27h13A2.3,2.3,0,0,0,319.41,36a2.36,2.36,0,0,0-2.28-2.28H300.2a2.29,2.29,0,0,1-2.28-2.28,2.36,2.36,0,0,1,2.28-2.28h30.72a2.29,2.29,0,0,1,2.28,2.28,2.37,2.37,0,0,1-2.28,2.28h-4.56A2.29,2.29,0,0,0,324.08,36a2.37,2.37,0,0,0,2.28,2.28h.76V75.18a2.37,2.37,0,0,0,1.52,2.17,40,40,0,0,1-13,77.73,39.09,39.09,0,0,1-15-2.93,2.34,2.34,0,0,0-1.74,4.34,44,44,0,0,0,16.72,3.26,44.62,44.62,0,0,0,16.07-86.2Z" fill="#666633"/><circle cx="332.66" cy="123.27" r="2.28" fill="#333"/><circle cx="323.43" cy="132.5" r="2.28" fill="#333"/><path d="M302.48,143a2.29,2.29,0,0,0-2,4.13,35.34,35.34,0,0,0,50.38-32,34.9,34.9,0,0,0-4.78-17.7,2.18,2.18,0,0,0-2.28-1.08l-.87.11a.37.37,0,0,0-.32.11,17.56,17.56,0,0,0-6.84,3.69,8,8,0,0,1-6,2.28c-2.71,0-3.9-1.09-5.64-2.5a12,12,0,0,0-8.69-3.58c-4.45,0-6.73,2.06-8.68,3.58-1.74,1.41-2.93,2.5-5.65,2.5a7.59,7.59,0,0,1-6-2.28,17.56,17.56,0,0,0-6.84-3.69.37.37,0,0,1-.32-.11l-.87-.11a2.27,2.27,0,0,0-2.28,1.08.11.11,0,0,1-.11.11,2.32,2.32,0,0,0,.87,3.15,2.38,2.38,0,0,0,1.52.33h0a13.09,13.09,0,0,1,5.1,2.82,12,12,0,0,0,8.9,3.26c4.45,0,6.73-2.07,8.69-3.59,1.74-1.41,2.93-2.49,5.64-2.49s3.91,1.08,5.65,2.49a12,12,0,0,0,8.68,3.59,12.37,12.37,0,0,0,8.91-3.26,14.07,14.07,0,0,1,4.23-2.61,30.82,30.82,0,0,1-27.47,44.62,31.47,31.47,0,0,1-13-2.82Z" fill="#333"/><path d="M271.21,74.85V29a6.91,6.91,0,0,0-.76-13.79H239.72a7,7,0,0,0-6.94,7A6.85,6.85,0,0,0,239,29V66a2.3,2.3,0,0,0,2.28,2.28A2.37,2.37,0,0,0,243.52,66V29h13a2.3,2.3,0,0,0,2.28-2.28,2.36,2.36,0,0,0-2.28-2.28H239.72a2.3,2.3,0,0,1-2.28-2.28,2.37,2.37,0,0,1,2.28-2.28h30.73a2.29,2.29,0,0,1,2.28,2.28,2.37,2.37,0,0,1-2.28,2.28h-4.56a2.29,2.29,0,0,0-2.28,2.28A2.37,2.37,0,0,0,265.89,29h.76V75.18a1.85,1.85,0,0,0,.11.76l22.36,64.81c1.3,3.91,1.09,7.49-.87,10.21s-5.21,4.12-9.33,4.12H231.26c-4.13,0-7.49-1.52-9.34-4.12s-2.17-6.3-.87-10.21l22.37-64.81a2.3,2.3,0,0,0-4.35-1.52l-22.36,64.81c-1.85,5.32-1.3,10.42,1.41,14.44s7.49,6.08,13.14,6.08h47.66c5.64,0,10.31-2.17,13.13-6.08s3.37-9,1.41-14.44Z" fill="#333"/><path d="M235.49,122.4a2.36,2.36,0,0,0-2.06-.43,2.2,2.2,0,0,0-1.52,1.41l-6.52,18.89c-.86,2.5-.76,4.56.22,6.08s3,2.17,5.65,2.17h47.66c2.6,0,4.56-.76,5.64-2.17s1.09-3.58.22-6.08l-6.51-18.67a2.2,2.2,0,0,0-1.52-1.41,2,2,0,0,0-2.07.43,7.52,7.52,0,0,1-5.32,1.74c-2.71,0-3.91-1.09-5.64-2.5a12,12,0,0,0-8.69-3.58c-4.45,0-6.73,2.06-8.68,3.58-1.74,1.41-2.93,2.5-5.65,2.5a8.62,8.62,0,0,1-5.21-2Zm14,2.72c1.73-1.41,2.93-2.5,5.64-2.5s3.91,1.09,5.65,2.5a12,12,0,0,0,8.68,3.58,12.86,12.86,0,0,0,5.54-1.08l5.54,15.95a5.35,5.35,0,0,1,.32,1.85,4.49,4.49,0,0,1-1.84.33H231.26a4.51,4.51,0,0,1-1.85-.33,5.56,5.56,0,0,1,.33-1.85l5.53-15.95a12.2,12.2,0,0,0,5.54,1.08C245.26,128.81,247.54,126.75,249.5,125.12Z" fill="#666633"/></svg>